<svg aria-hidden="true" style="position: absolute; width: 0; height: 0; overflow: hidden;" version="1.1" xmlns="http://www.w3.org/2000/svg" xmlns:xlink="http://www.w3.org/1999/xlink">
<defs>
<symbol id="icon-heart" viewBox="0 0 37 32">
<path d="M27 0c-2.476 0-4.856 0.921-6.704 2.595-0.702 0.635-1.303 1.357-1.796 2.154-0.493-0.797-1.094-1.519-1.796-2.155-1.848-1.673-4.228-2.594-6.704-2.594-5.514 0-10 4.486-10 10 0 3.722 1.158 6.66 3.871 9.825 3.942 4.6 13.919 11.62 14.342 11.917 0.086 0.061 0.187 0.091 0.287 0.091s0.201-0.030 0.287-0.091c0.423-0.297 10.4-7.317 14.343-11.917 2.712-3.165 3.87-6.103 3.87-9.825 0-5.514-4.486-10-10-10zM32.371 19.175c-3.495 4.076-12.18 10.341-13.871 11.545-1.691-1.204-10.376-7.469-13.87-11.545-2.545-2.969-3.63-5.713-3.63-9.175 0-4.963 4.038-9 9-9 2.227 0 4.37 0.829 6.032 2.335 0.838 0.76 1.518 1.656 2.020 2.664 0.17 0.34 0.726 0.34 0.896 0 0.502-1.008 1.182-1.904 2.020-2.663 1.662-1.507 3.805-2.336 6.032-2.336 4.962 0 9 4.037 9 9 0 3.462-1.085 6.206-3.629 9.175z"></path>
</symbol>
<symbol id="icon-happy1" viewBox="0 0 32 32">
<path d="M16 32c8.837 0 16-7.163 16-16s-7.163-16-16-16-16 7.163-16 16 7.163 16 16 16zM16 3c7.18 0 13 5.82 13 13s-5.82 13-13 13-13-5.82-13-13 5.82-13 13-13zM16 18.711c3.623 0 7.070-0.963 10-2.654-0.455 5.576-4.785 9.942-10 9.942s-9.544-4.371-10-9.947c2.93 1.691 6.377 2.658 10 2.658zM8 11c0-1.657 0.895-3 2-3s2 1.343 2 3c0 1.657-0.895 3-2 3s-2-1.343-2-3zM20 11c0-1.657 0.895-3 2-3s2 1.343 2 3c0 1.657-0.895 3-2 3s-2-1.343-2-3z"></path>
</symbol>
<symbol id="icon-neutral" viewBox="0 0 32 32">
<path d="M16 32c8.837 0 16-7.163 16-16s-7.163-16-16-16-16 7.163-16 16 7.163 16 16 16zM16 3c7.18 0 13 5.82 13 13s-5.82 13-13 13-13-5.82-13-13 5.82-13 13-13zM8 10c0 1.105 0.895 2 2 2s2-0.895 2-2-0.895-2-2-2-2 0.895-2 2zM20 10c0 1.105 0.895 2 2 2s2-0.895 2-2-0.895-2-2-2-2 0.895-2 2zM12 22h8v2h-8v-2z"></path>
</symbol>
<symbol id="icon-wondering" viewBox="0 0 32 32">
<path d="M16 32c8.837 0 16-7.163 16-16s-7.163-16-16-16-16 7.163-16 16 7.163 16 16 16zM16 3c7.18 0 13 5.82 13 13s-5.82 13-13 13-13-5.82-13-13 5.82-13 13-13zM23.304 18.801l0.703 2.399-13.656 4-0.703-2.399zM8 10c0-1.105 0.895-2 2-2s2 0.895 2 2c0 1.105-0.895 2-2 2s-2-0.895-2-2zM20 10c0-1.105 0.895-2 2-2s2 0.895 2 2c0 1.105-0.895 2-2 2s-2-0.895-2-2z"></path>
</symbol>
<symbol id="icon-checkmark" viewBox="0 0 32 32">
<path d="M27 4l-15 15-7-7-5 5 12 12 20-20z"></path>
</symbol>
<symbol id="icon-checkmark2" viewBox="0 0 32 32">
<path d="M12.42 28.678l-12.433-12.238 6.168-6.071 6.265 6.167 13.426-13.214 6.168 6.071-19.594 19.285zM3.372 16.441l9.048 8.905 16.208-15.953-2.782-2.739-13.426 13.214-6.265-6.167-2.782 2.739z"></path>
</symbol>
<symbol id="icon-google" viewBox="0 0 32 32">
<path d="M16.319 13.713v5.487h9.075c-0.369 2.356-2.744 6.9-9.075 6.9-5.463 0-9.919-4.525-9.919-10.1s4.456-10.1 9.919-10.1c3.106 0 5.188 1.325 6.375 2.469l4.344-4.181c-2.788-2.612-6.4-4.188-10.719-4.188-8.844 0-16 7.156-16 16s7.156 16 16 16c9.231 0 15.363-6.494 15.363-15.631 0-1.050-0.113-1.85-0.25-2.65l-15.113-0.006z"></path>
</symbol>
<symbol id="icon-google-plus" viewBox="0 0 32 32">
<path d="M10.181 14.294v3.494h5.775c-0.231 1.5-1.744 4.394-5.775 4.394-3.475 0-6.313-2.881-6.313-6.431s2.838-6.431 6.313-6.431c1.981 0 3.3 0.844 4.056 1.569l2.762-2.662c-1.775-1.656-4.075-2.662-6.819-2.662-5.631 0.006-10.181 4.556-10.181 10.188s4.55 10.181 10.181 10.181c5.875 0 9.775-4.131 9.775-9.95 0-0.669-0.075-1.181-0.163-1.688h-9.613z"></path>
<path d="M32 14h-3v-3h-3v3h-3v3h3v3h3v-3h3z"></path>
</symbol>
</defs>
</svg>
